<svg xmlns="http://www.w3.org/2000/svg" width="65" height="30" fill="none" viewBox="0 0 65 30"><path fill="#000" fill-opacity=".5" d="m34 15.2.7.2q.2.1.3.4.3.2.8 1.4l.4.7q.2.9.4.9l.5-.8 1.3-2.3.3-.2.2-.2h.1l.5-.1q.9 0 .9.3v4l.2 2.7v.4l-.1-.5q0 .3.4.3.3 0 .3.3l-.1 1-.5-.2h-.8q-1.2 0-1.2-.2v-.6l.4-.2V22l.1-.7v-3.7l.2-.4-.1-.7q-.3.2-.8 1-.5 1-1 1.6l-.5.8h-.6l-.2-.2q0-.3-.4-.6l-.8-1.5-.1-.3-.2-.3.2.2q0-.5-.3-.8h-.2v.4l.2 5v.1l-.1-.2-.1.3.2.2v.2l-.3-.1v.1l.5.2h.2q.6 0 .6.2h-.1l-.3-.1h-.4l.1.2h.6v.2q0 .3-.2.3l-.5-.1h.2l.1.1-1.6-.1H33l-.3-.1-.2-.4v-.1q.2-.3.5-.3h.4v-.1l-.2-6.1v-.8q0-.3.2-.3zm4.9.6.2-.2v-.1zm-5-.2h.2zm.6 0h.2zm-.8 0 .2.6V16zm5 .3.2-.1q-.2 0-.1.1m-5.4-.1.1.6v-.3zm1 .1.5.7.5 1-.5-1.3-.3-.4zm-.6.6v.7q.2 0 .2-.3v-.4zm3.7 1.4.3-.5.2-.4q-.2 0-.5.9m2.2-.5v-.1m.3.6q0 .8.2.9v-1.2q-.2 0-.2.3m-6.5-.3v.3zm6 .4.1.1V18zm-5.4.5v.7h.1v-1zm2.6.5v.2zm-3.1.2v.4zm.4.4v.2zm-.5 1 .1-.4v-.5zm.6-.5v1.6l.2-.2-.1-.2v-.9zm5.6 1-.2.4.1.2zm.4.2v.5h.1zm-6.6.2v.2l.1-.2v-.1zm5.6.4v.2zm.8 0h.1zm-5.9.3h.1zm-1.5.4.1.2h.1v-.3zm7.1-.4h.1zm-7 1h.1zm1 0h.3zm.4 0 .2.1h.2-.3zm4.6-.4h.3-.2zm0 .3.1.1h.2-.1zM42 16l.7.1h.2l.5.1-.1.1.2.1-.2.4h-.7v1l-.1 1.1v1.2-.2h-.1V21l.1-.8v1.2l.1.3q.2 0 .6.6.2.2.7.2l.3.1h.1q.4 0 .6-.4l.5-.9q.2-.1.2-.5v-1.5.1l.1-.4h-.1v-1q0-1.1-.3-1.1-.6 0-.6-.2l-.1-.3q.2-.4.7-.4h.8l.6.1v.3q0 .3-.3.5l.1 2q-.2.4-.2 1.8l-.4 1.6-.2.3-.1.1-.2.3q-.2.2-.6.2h-1q-1.2 0-1.7-.5-.2 0-.2-.2v-.1l-.4-1.2v-.9l-.1-.2.1-.4v-.5l.2-1.5V17q0-.2-.4-.2v-.6q0-.2.7-.2m4.3.5h.2zm-1.2 0h.3zm-3.5.1h.1zm.4.3v.1h.1zm.3 0-.1.3.1-.1V17zm-.2 1 .1-.2zm3.8 0v.3zM42 18v.3-.2zm.3.5v.2l.1-.3V18zm3.7.2v.3zm-4 .9v.5zm3.9.4h.1zm0 .6v-.3zm0 .2v-.1zm-3.9 1 .1.3v.2l.1.1V22zm.6.2.3.4-.1-.3zm2.6.6q.3 0 .3-.2-.2 0-.3.3m-3 0 .2.2zm.8 0h.1zm1.9.1h.1zm-1.1.1h.1zm.2.1h.2zm.8.2h.1l.2-.1zm8.4-7.8q.2 0 .2.3 0 .4-.3.4h-.4v.1L53 22v1l-.1.5h-.7l-.3-.1q0-.3-.3-.7l-.4-1.2-.2-.2-1.1-2-.5-1-.7-1.1v1.7l-.2 2.6v1.3l.1.3v.2h-.2v.1l.2.1q0 .2-.2.2h-1q-.3 0-.3-.2l-.1-.6.5-.3v-.4l.1-.2v-1q.2-2.3.2-5.4v-.3h.7q.2 0 .6.6l.7 1 .5.8q.6.7 1 1.8.3.8.5.8l.1-.4v-3.8l-.6-.1v-.4q0-.4.3-.4zm-4.9.1q0 .2.2.2v-.1zm3.2.5h.3zm.6.4v.1h.1v-.2zm-3.8.7v-.6zm.3-.5.1.3zm.5.5.4 1-.2-.7zm.7.7q0 .2.3.5zm-.1.5q.1.6.7 1.4zm1 .6q0 .4.2.6zm.3.7q0 .4.2.6zm-.5.3q0 .5.2.5zM48 21.1v-.6zm3-.2.2.2V21zm1.3.4v.2h.1V21zm-4.5.1v.2l.1-.2zm3.7.8.1.3zm-3.7.3v.1h.1zm-.6.3h.2zm5.6.1v.1zm-5.8.2.2.1h.1-.3m.2.4h.2zm8.1-7.8h.4q.6 0 1.6.3.9.4 1 .6l.5.4.1.1-.4-.2q0 .2.3.4l.5.5.3.9.2.2v-.2q.4 1 .4 1.4v.8l-.3.6-.5.9.3-.4h.1l-.3.4-1.4 1q-.3.3-.8.4l-.8.1h-1.4l-.6-.2h-.4v.1H54l-.1-.2V23h1.2v-1.4l.1-3.7v-.5l-.1-.3h-1.5v-.9q.2-.2.6-.2zm-.2.1h.5zm-.6 0 .4.2h.1l-.2-.2zm1.7.2.2.1zm-2.3.2h.3-.2zm2.7 0h.1zm.5 0 .9.4h.1l-.8-.4zm-1.8.1q0 .2.6.2l.1-.2h.3zm1.7 0 .5.3zm-2.9.1h.1zm3.6.2v.1l.3.2.1.1h.3-.2V17zm-3.7 0 .2.1zm.3.1h.2zm1.7.4v1.3-.2.5h.1V21q0 1.3-.2 2l.9.2q.6 0 1.4-.4l.7-.8q.2-.3.3-1.2v-.1l-.1-1.3-.5-1.1-.7-.8-1.5-.5q-.3 0-.3.2m1.2-.2.3.2zm1 .3.2.1zm.8.1.4.6.1.2-.3-.3zm-.7.1q0 .2.3.4v-.1zm-3 .4v.2zv-.4zm4.2.4.2.4zm-.6 0v.2l.3.8q-.1-.7-.3-1m-3.7.1v.1zm-.1 1.8v.6h.1v-2zm4.4-1v.6h.1zm-.4.8v.3l-.1.8.2-.3zm.9 1.2-.3.7zm-1 .5.2-.1v-.1zm-3.5 0v.2zm3 .9q.6-.5.7-.8-.5.2-.7.7zm-3.4 0V22zm3 0v-.1zm-1.1.9q.5 0 1.5-.7l-1 .4zM54 23v.4-.1l.2-.1h.1V23l-.2-.1zm.8.4.5.3h.5v-.1zm1.3.1.4.1h.1-.5zm0 .3.3.1h.2-.1z"/><path fill="#000" fill-opacity=".5" d="M61.2 15.7h.2l1.7-.1q.1.2.3.2.2.2.2.7 0 .3-.6.4-.5 0-.5.3v1.7l-.1.2v1.1l.2 2-.1.6.1.1 1.2-.1q.3 0 .3.3v.1q0 .7-.2.7h-3.3q-.2 0-.2-.5V23h.2v-.2h1v-1.3l-.3-4.6h-1.1l-.2-.4v-.9zm.1.4h.1zm-1 .7h.2zm1.6.4.1-.2zm.5 6.1h.1zm1.1.2h.2zm-28-17.2q.7.1.7.3l.6 1.8.4 1.5.8 3 .3.5v.5h.6l.2.1-.1.2v.2l-.1.3-.2-.1h-.2l.2.1-.1.1h-1.1q-.3 0-.7-.3l.1-.1V14q0-.2.4-.2 0-.6-.5-1.3l-3.1.3h-.3l-.3 1h.4q.4 0 .7.4l-.3.3q0 .2-2 .2l-.2-.1v-.4l.1-.2v-.2l.2-.1v.2l.2-.3v-.2l.1-.6.7-1.8.2-.6.2-.3V10l.1-.2.2-.3.5-1.7.4-1 .2-.2zm.2.2h.1zM33.6 12l2.6-.2h.5v-.1q0-.5-.2-.5L35.8 9l-.2-.9-.2-.2v.3L34 10.5zm.2-2.2v.3zm2.9 1.7h-.1zm-1 .5h.3zm-1 .2h.1zm3.2.4-.6.2v-.1zm-5.6.5h.1zm5 0h.5zm1 1.3.2-.1zm-1.1.4h.1z"/><path fill="#000" fill-opacity=".5" d="M39.6 6q1 0 1.7.3h.4v.8h-.1l-.2-.1H41h.2v.1h-.3l-.1 2.5v3.9h3.1l.4.1.1-.7q0-.2.2-.2.7 0 .7.2H45v.1l.2.2-.1.8v.5l-.2.2h-6v-.3q0-.7.3-.7l.5-.1V10l.1-2.7q0-.3-.3-.3l.3-.2h-.5V7h-.1l-.1-.3.1-.4.1-.1zm1.6.5h-.3v.1zl.2-.1zm-1 0q.1.2.3.2h.1v-.1h-.3m.2.2h.1zm0 .3v.3h.1v-.1zm-.1 2.5v.7zm4.6 3.6v.3l-.2.5v.1h.1q.2 0 .2-.7zm-4.7 0v.6l.1-.4zm3.4.5h.2q0 .2.2.2h.3l-.6-.2zm-.5.1h.3-.1zm-4 .2h.1v-.1zm1.2 0 2.3.2zM39 14h.1zm4.3.1h.3zm.5.2.3-.1zm.2.1.3.2.1-.1h.4-.6zm-3.5.1q0 .2.6.2h.6v-.1h-1zm1.7 0h.1z"/><path fill="#000" fill-opacity=".5" d="m45.7 5.7 2.4.2h3q.2.6.2 1.4 0 .4-.2.4l.1.2-.4.2q-.3 0-.3-.2v-1h-2q-.2 0-.2 2l-.1 2.5v.4l-.1.3v1.5l1.3.2q.3.1.3.3l-.1.6v.1h-4l-.1-.8h.2l-.1-.1.6-.2h.9l.2-.9V12l-.1-1.4L47 8V6.9q0-.2-1-.2l-.7.1-.2 1h-.8V6.3q0-.2.2-.2l.2-.1.1.1q.3-.3.7-.3zm2.8.6h.6zm1.6.3h.2zm-2.4.3q.2 0 .3-.2zm-2.9 0h.1v-.1zm2.5 0v.2q.2 0 .2-.2v-.2zm.5.5v.3zm.1 1.2v1.1h.1V8.5zm-.4 1.4v1.4zm.1 1.8v.2l.1.2zm-1.3 2.1h.4l-.2-.1zm-.3 0h.1zm2.9.2h.5zm-.3.2.1.1h.2l-.2-.1zm-1.3 0h.3-.2zm-1 0h.5-.3zm-.4.3.1-.1zm3.4 0"/><path fill="#000" fill-opacity=".5" d="M53.2 6.9h2.7V7l.5-.1h.1V7l.1 1.2-.2.5H56q-.4 0-.4-.2l.2-.2q-.2 0-.2-.2l-.1-.2v-.1h-.4.1V8H53l-.7.1.1 2.2h.8l1 .2.1-.4.3-.2q.2 0 .2 1.2v.6l-.5-.1-.1-.4-1-.1h-.8v.2l.1 1.2-.1 1.5 1.4-.1h2v-.2h-.2l-.1-.2.4-.2.3.1.1.3V15l-.6-.1-4.2-.2q-.3 0-.3-.2v-.8h.3l.2-.1V11l-.2-.3.1-2.2v-.3q0-.3-.3-.3l-.3-.1h-.2q-.2 0-.2-.5t.3-.4zm-2.3.1.1.2h.2V7zm.6.2h.1zm.2 0 .1.1h.2zm.6 0h.1zm2.7.1.7.1-.3-.1zm-2.2 0h.2zm-.6.3a.1.1 0 0 0 .2.1h.4l-.3-.1zm1 0h.1zm-1.9 0h.3zm.5 3.8v.2zm.3 1.7v.3zm3.8.4h.1m-4 .7h.3-.2zm.9 0h.1zm2.6 0h.2zm-2.3 0h1-.7zm-1.6.1.1.1h.1zm3 0 .6.1H55zm1.2.2.2.1zm-1 .2h.4-.3m-1 0h.2zm-1 0h.1zm5.8-8.9 1 .2q1 0 2.7.5.7.6 1 1.3l.2.9q0 .6-.5 1.3-.3.4-.9.7l-.6.4-.2.2 1.5 2.2q.4.6.7.6 1 0 1 .3l.1.6h-.2l-.7.2H63q-.7 0-.7-.2l-.1-.5v-.1l-.4-.7-.1-.3-1-1.7q0-.2-.2-.2l-.8.2q-.6 0-.6.4v.2q0 1.7.3 1.7h.6l.1.5v.3q0 .2-1 .3h-1.8l-.1-.4v-.2q0-.5.2-.5l.6-.1v-4L57.8 7l-1 .1h-.2v-.6l.1-.1v-.1l1-.3zm0 .3h.3-.1zm.2.4h.5zm1 .1h.4-.3m1.6 0h.1m-5 .2h.2v-.1h-.1zm5.3 0 .7.4q0-.2-.7-.4m-3 .1v3.4l.1.5 1-.3 1-.4q.6 0 1.4-.8.3-.4.3-.8v-.2l-.4-.7q-.7-.7-1.3-.7zM58 7v.3l.1.7.1-1zm.8.7V8h.1v-.2zm-.3.4-.1.9h.1zm4.6.3h.1zm-5 .3v.1zm5.1.4-.1.3v.1q.2 0 .2-.2zm-.3.7.1.1.2-.2zm-.3.2h.1zm-.9.3h.1l.3-.1V10zm-3.3 0V10zm2.7.4q.4 0 .5-.3-.4.1-.5.3m1-.2h.1zm-.2.1h.2zm-1.4.3h.3v-.1zm-.5.2h.3V11zm1 .2.3-.1zm.3.9v.2h.1zm-2.8 1.7v.2l.1-.2zm.4.7.1-.2V14zm-.3-.2v.2zm4.3.4.1.1v-.1zm1.4 0h.1zm-4.5.2h.1v-.1m3.3 0h.2zm1.1.2h.4-.3m-1.9 0h.1z"/><path fill="#55d400" fill-opacity=".5" d="m22.6 4.7-.3 1q.3 0-.2 1l-.2.3-.3.5-.3.3-.2.2v.3h.1l.5-.4-.4 1.3-.3.1-.2-.1h-.2v.3l-.1.1-.1.2-3.5 6.2-3.2 4.2h-.1l.3.2.5-.4-.2.3-.1.2h.2l.5-.3h.1l.1.1q.2 0 .8-.8v-.2h-.2l-.2.2h-.1l.2-.3q.3-.7.7-.9v.3h.1l.2-.3.7-1v.2q-.7 1.6-2.1 3.2l-.1.2.2.1.4-.4a25 25 0 0 0 3.2-5.2l1.6-2.6.7-1 .2-.3.7-1.8.6-1.4L23.9 5l.1-.4zm.1 0 .1.2v.2h-.1V5zM21 8.6q-.2.3 0 .4zm-1 4.1-.1.1-.8 1.2.1-.5q.5-.8.7-.8m-1.5 1.8v.2h-.1zm-.4.8q-.3.9-.8 1.3.6-1.3.8-1.3m-2.5 3.5q-.2.4-.5.5v-.1q.3-.5.5-.5m-2 1.3-.3.1.4.2zm1.2.8"/><path fill="#55d400" fill-opacity=".5" d="M21.1 2.7q-.4 0-.3.6-.1.7-.3 1h.3v.1l-.1.1h-.2l1.2.4L24 7.5q1.4 2.7 1.8 4.1v.1h.1v.2l.2.1h.5v.9l-.4-.3q0 .2-.2.2v.1h.1l.3.2v.3l.2.2q.2.7-.2.8-.1 1.6-.4 2l-.3 1.5q-.5 1.3-1 2l.1.1h1.4q.1-.2.6-.3.2-.1.5-1.4.4-1 .6-3.6l-.2-2.2-.2-.9-.1-1.2-.1-.2q0-.3-.5-.6-.1-.7-1-1.7-1.6-3.4-1.9-3.3l-1.2-1q-.9-.8-1.6-.9m3.6 3.8-.4-.6-.3.1-.2.2q-.4-.2-.5-.6l-.1-.3h.1l.2.2.2-.1q-.4-.6-.6-.6l-.1.1h-.2q-.3 0-.7-.7l.5.2-.3-.3V4h.1q.8.2.9.6 1 1 1.3 2m-3.2-2.3h.3l.5.6q.2.1.1.2l-.5-.4q-.6-.3-.7-.5h.1zm.1.7h-.2q-.3 0-.4-.2 0-.2.2-.3t.4.4m1.3.4h-.2zm.3.5V6q-.2 0-.3-.3v-.1q.3 0 .3.3M25 8.1q-.2 0-.6-.8.4.3.6.8m.2.4H25zm1 1.2q-.2 0-.5-.4V9q.4.3.6.7m-.2 2.5q-.1 0 0 .2zm.6 2.5-.1.2zm.3.8.2.3q0 .7-.2.7h-.1l-.3-.1q.1-.9.4-1m-.3 1.2.1.1q0 .5-.3.6v-.1zm-.7 1.9v.2l.2.1q0 .2-.5.4 0-.4.3-.7m0 1.1-.1.2h-.1l-.2-.1z"/><path fill="#ffb600" fill-opacity=".5" d="M3.7 5.8q0 .4.5.5l1 .5.2-.3.1.2V7l.7-1.2L9.5 4q3-1 4.7-1l.1-.1h.2l.2-.1v-.5l1 .1-.4.4q.2 0 .2.2h.2q0-.3.2-.3h.6q.8-.1.7.3 1.7.4 2.1.8l1.5.6 2 1.4.1-.1V5l.3-.6v-.2Q23 4 23 3.5q0-.3-1.4-.8-1-.6-3.7-1.4L15.6 1H13q-.3 0-.7.3-.8 0-2 .7-4 1-4 1.3L5 4.4q-.9.7-1.2 1.4m.9-.6v.2h-.1zm.4-.1v.1H5zm3.6-2.2h.1l-.8.4-.2.1.2.3q-.2.3-.8.4H7V4l.2-.2v-.2q-.7.3-.7.5v.3q0 .3-1 .7 0-.2.4-.6l-.5.3v-.2q.4-.7.8-.8 1.4-.9 2.5-1m-3.2 3v-.3q0-.2.8-.5.2-.2.2 0l-.5.4q-.5.6-.7.6zm.8 0 .1.2q-.2.4-.4.4T5.7 6zm.5-1.3v.2zm.6-.2q0 .2-.3.3H7q.1-.3.4-.3m2.8-1.4q0 .3-1 .5.4-.4 1-.5m1.9-1q0 .4-.6.6l-.3-.2q.4-.3.8-.3m2.7.7.2.1zm2.8 0h.1v.1zm.8-.3h.4q.7 0 .7.2v.2l-.2.3q-.9-.3-.9-.7m1.1.6h.2q.5 0 .5.3-.4 0-.7-.3m1.9 1.2h.3l.1-.2q.2 0 .3.6-.4 0-.7-.4m1.2.1.1.3-.1.2v-.3z"/><path fill="#55d400" fill-opacity=".5" d="M4.8 4.6q.4 0 .4.4.3.7.6 1l-.3.1q0 .2.2.1h.2l-1.2.7-1.5 3.2q-.8 3-.8 4.5v.4l-.2.1H2l-.3.1q.1.9.3.9l.3-.4q0 .2.2.2v.1l-.3.3v.5q0 .8.3.7.6 1.6 1 2l.6 1.3 1.5 1.9-.2.1H5l-.6.3h-.2l-.7-.1q-.3-.1-.8-1.3-.7-1-1.6-3.5L.8 16l-.1-1q-.2-.3-.1-1.2v-.2l.2-.7q0-.7.6-2 .7-3.7 1-3.8.4-.7 1-1.3.7-1 1.4-1.2m-.6.8h.2v-.1zm-2 3.9v.1l.3-.7.1-.2.3.1q.3-.2.3-.7v-.2l-.2.2h-.2q.2-.7.4-.8h.3q.3 0 .6-.8v-.1l-.5.3.2-.4h-.1q-.7.4-.7.8-.8 1.3-.9 2.4m2.7-3.1h-.3q-.2 0-.4.7-.2.2 0 .3l.4-.5Q5 6.2 5 6zm0 .7L5 7h.2q.3-.2.3-.4t-.3-.2zm-1.1.7H4zm-.2.6q.2 0 .3-.3v-.1q-.3.1-.3.4m-1.2 2.7q.2 0 .3-1-.3.4-.3 1m-.1.4v.1h.1zm-.7 1.5q.2 0 .4-.5l-.1-.3q-.3.4-.3.8m.7 2.5q.2 0 .2.2zm.1 2.6v.2h.2v-.2zm-.1.9v.3q0 .7.2.7l.2-.1.2-.1q-.3-.9-.6-.8m.6 1v.2q0 .5.3.4 0-.4-.3-.6M4 21.5v.3l-.2.1q0 .2.6.2 0-.3-.4-.6m.2 1.1q0 .2.2.2h.1l.2-.2z"/><path fill="#c78338" fill-opacity=".5" d="M27 18.4q-1 .5-3 1.1l-2 .5q-.6.4-3 .7 0 .3-1 .3h-1l-.4-.2H16v.1l.7.3-1.4.2q-.2 0-.2-.2V21l-.2-.1h-.5L7 20.5l-5.2-1v.2l.5.3q0 .1-.4 0h-.1v.2q.4 0 .5.3v.2q0 .2 1.1.3l.1-.1-.3-.2H3h.4q.8-.1 1.1.1l-.1.2.2.2 1.3.1-.1.1h-.1q-1.7 0-3.9-.5h-.1v.3l.5.1q0 .3 6.2.6 1.9.3 3 .3l1.1.2h.5q1.3 0 1.9-.2l1.5-.1 3.5-.3q4-.6 5.4-1.1 2-.4 2-.7 0-.4.3-.5v-.2q-.5-.3-.5-.5v-.4zM1.7 19v.4H2v-.2zm25 0 .3.2-.1.2h-.2zm-.7.2q0 .5-.3.5l-.2-.1H25zM3.5 20.3l.6.1v.1h-.2q-.4 0-.6-.2zm19.7 0h.2q0 .2-.7.4h-.1l-.1-.1q.2-.3.7-.3m-1.2.3.3.2h.2q0 .2-1 .3h-.7q0-.3 1.2-.5m-2.3.1h.2v.2h-.3zm-4 .1-.3.1.2.1zm-8.8.2q1.4 0 1.6.2-1 0-1.6-.2m2.3.1v.1H9zm1.4.3q1 .1 1 .4h-.1l-1.4-.2z"/><path fill="#0198fe" fill-opacity=".5" d="m1.7 18.6 1 .8q.5.3.7-.1l1.4-2.6 2.2-4 2.2-3.4.6-.9 4.6-5.7-1.8-1.1L11.1 4 7.8 8.6a82 82 0 0 0-5 8zm.3-.3.2.1v.2zm1-.5.2-.1.2.6v.3h-.1q-.2 0-.2-.4-.1-.2 0-.4m.7-1.9.2-.1v.1l-.1.1zm.8-1.4v.1zm1.6-1.3h.2zm.3-.3.2-.5.2-.3-.1.4zM6 11.7v.4zm1 .2v-.2h.1zm1.1-3-.5 1zm1.1-.7 1-1.4 1.4-1.7.6-.8h.2l-.1.3zm1.6-3.5.3-.2v.2zq-.2.3-.3.2z"/><path fill="#c78338" fill-opacity=".5" d="M19.3 26.4q.1-.3-.3-.5-.5-.6-.6-1l-.3.3q-.1-.1 0-.2l.1-.2-1.1.8-3.6.2q-3-.5-4.5-1l-.1-.1h-.3v.2q-.1.2-.3.2l-.7-.5.5-.1v-.3h-.2q-.2.1-.4 0H7V24q-.7-.2-.5-.6-1.3-1-1.5-1.5-.1-.3-1-1.2l-1.1-2h-.2l-.2.4-.5.5v.1l-.2.7q0 .3.9 1.3.6 1 2.6 2.7l2 1.2.8.5q.3.3 1 .6h.3q.2.1.8 0 .6.3 2 .3 3.7.8 4 .5l1.5-.4q1.1-.3 1.7-.8m-1 .2h.1zm-.4 0h.2zm-4 .4q.1-.1.8 0 0-.1.2 0v-.4q.3-.2.8 0h.2v.1l-.2.1h-.1v.3q.7 0 .8-.2v-.1l.1-.2q.2-.2 1-.2h.1l-.5.4h.5v.1q-.7.4-1.1.3-1.5.2-2.5-.2m3.9-1.2-.1.3H17q-.2.1-.2 0l.6-.2q.7-.3.9-.2v.1zm-.6-.3H17v-.3q.3-.2.5-.1t.1.3zm-1.2.8h.1zm-.6 0q0-.2.4-.1h.1q-.3.3-.5.2m-3 0q.2-.2 1 0-.4.2-1 0m-.4 0H12V26h.1zm-1.6 0q.1-.3.7-.2.3.2.2.3zm-2-1.8-.2-.2v.2zm-2.5-1-.1-.2zm-.8-.2-.4-.1q-.5-.4-.5-.6h.2l.2-.2q.7.6.5.9m-.7-1h-.2q-.4-.3-.3-.5.4.1.5.5m-1.1-1.7-.3-.2-.2.1q-.2 0 0-.6.3.2.5.6zm-1-.7q-.1 0 0-.2v-.1l.2-.1v.3z"/><path fill="#55d400" fill-opacity=".5" d="m27.1 10.4-.4.2q-.6.5-1 .5v.1l.2.2v.1h-.2l-.1-.2.3.6h.2v.5l.1.1-.3 3.6q-.7 2.4-1.3 3.7h2v-.2q.3-.6.5-1.9 1.2-3.7 1-3.9l-.2-1.6q-.2-1.1-.6-1.7zm-1 2-.2-.5h-.1v.5l.2.1zm.2-.8h.2v.3l.2.1q.2.1 0 .9v.2q-.2-.1-.2-.7-.2-.7-.1-.8m.8 0 .1.2h-.1zm-.1.6.3.6v-.5h.1q.4.8.2 1.1 0 1.5-.5 2.5-.1 0 0-.8V15h-.3q-.2-.4 0-.8l.2-.2.1.3q.2.1.2 0v-.7l-.1-.1H27q-.2-.3 0-1.1zm-.5 1.3v.2zm0 .2q.2.3 0 .6-.2 0 0-.5zm-.1 2.5-.2 1q-.2-.2.2-1m-.3 2.2-.1.9q-.3-.2-.2-.7z"/><path fill="#0198fe" fill-opacity=".5" d="m15.4 1.2-1.5.8q-.5.4-.3.7L15.5 5l2.8 3.6 2.2 3.4.5 1 3.1 6.5 2.3-1.3q-1.4-1.8-1.6-2.4l-2.8-5q-.6-1.4-5.2-7.7zm.1.4v.1l-.3.2h-.1zm0 1.3V3h-.8l-.3-.1v-.1q.2-.2.6 0 .3-.1.4 0M17 4.4v.2h-.1v-.2zm1 1.3h-.1zm.3 2v.2-.1zm.2.4.4.5.2.2q-.1.1-.4-.2zm1.5 0h-.2V8q0-.1-.2 0v-.1zM19 9l.1.2H19zm2.4 2.2q-.1.2-.7-.8zm0 1.4h.2l.7 1.4 1 2 .4 1h-.2q0 .1-.1 0zm2.7 2.9v.3H24l-.1-.2q-.1-.3 0-.4t.2.3"/><path fill="#0198fe" fill-opacity=".5" d="M2 12.3q1-.5 3-1 1.7-.3 2.1-.5.6-.2 3.1-.5 0-.3 1-.2h1l.4.2h.5l-.6-.4H14l.2.1v.2l.1.1h.6l7.2.7 5.1 1.2h.1V12l-.5-.3q0-.1.4 0h.1v-.2q-.4 0-.4-.3V11l-1.2-.3-.1.1.1.1.3.1v.1h-.3q-.8 0-1.2-.3l.2-.2-.3-.1-1.2-.2h.2q1.7-.2 3.8.6h.2v-.3l-.6-.2q0-.2-6-.8-2-.4-3-.4l-1.2-.3h-.4L14 9h-1.5L9 9.2l-5.5.8q-1.9.4-2 .6 0 .4-.3.6v.1q.5.4.5.6v.3zm25.2.4v-.4H27v.2zm-25-1.2-.3-.1v-.1l.1-.2h.1l.2.1q0 .3-.2.3m.8-.1q0-.5.3-.5l.3.1h.4zm22.7.1q-.6-.1-.7-.3h.1q.5 0 .7.2zm-19.7-1h-.2q-.1-.2.6-.3h.3q-.3.3-.7.3m1.1-.2-.2-.2-.2-.1q0-.2 1-.2h.6q0 .4-1.2.5m2.4 0h-.2v-.1l.2-.1h.2zm4 0h.3v-.1zm8.8.3q-1.4-.1-1.5-.3 1 0 1.5.2zm-2.2-.3h-.2zm-1.4-.3q-1-.1-1-.4h.1q.7 0 1.3.3z"/><path fill="#c78338" fill-opacity=".5" d="m13.8 21.6.5.7a25 25 0 0 0 3.9 4.8l.4.4.2-.2-.1-.1c-1-1-2-2-2.5-3V24l.8 1 .2.2.1-.3q.4.1.8.8l.2.3-.3-.1h-.1q-.1 0 0 .1l.8.8.1-.1h.1l.5.2.2-.1v-.1l-.3-.3.5.3.3-.2-3.8-3.8-.8-1zm1.3.3q.2 0 1 1.2-.6-.4-1-1.2m3 3.2.4.4.1.1q-.3 0-.5-.4zm.6.7h.1v.1zm1.5.4H20v.2l.3-.1zM19 27"/><path fill="#55d400" fill-opacity=".5" d="M7.5 4.7h-.2l-.3.1h-.8q0 .4-.4.5-.1.2.6 2 .3 1.5 2 5.2l1.6 3 .8 1.4q.2.6.9 1.7l.2.3q.2.4.8.9l.5.8h.8l-.8-1v-.1q.2 0 .7.6l.2.5h1l-2.7-4h-.2v-.2l-.1-.2h-.3v.1l-.4-.1-.6-1.2.6.3V15l-.2-.2-.4-.2-.2-.5-.3-.2v-.1q-.6-.9-.3-1-1-2.3-1-3l-.8-2zm-.8.4.3.2-.2.2h-.2v-.3zm.5.9q.3.5.3 1l-.3-.4-.2-.1q-.2-.2.2-.5m.6 2.8L8 9q.2.3.1.7l-.2-.2q-.3-.7 0-.7m0 1 .2.2h.3q.5 1.2.2 1.3l-.4-.4q-.5-1-.3-1zM9.4 12v.2zm2.2 3.5v.3h.1z"/><path fill="#c78338" fill-opacity=".5" d="m13.3 21.6-.1.2-3.7 3.7.2.2.5-.3-.2.3v.1l.1.2.5-.3h.1l.1.1q.2 0 1-.7l-.1-.2h-.2l-.2.2h-.1l.2-.3q.4-.7.8-.9v.3h.1l.2-.2.9-.9v.1l-.1.1q-.8 1.4-2.5 3l.2.2.4-.4q.2.2 3.6-4.5h-1l-.5.6.3-.6zm-1.8 2.5v.1q-.2.4-.5.5v-.1q.3-.5.5-.5m-.7.8-.1.1h-.1zm-1.4.3-.3.1.3.2.1-.1zm14.9-4.8v.2h-.1v.3h.2q.2.1.2.3-.5.7-.6.6v-.4h-.3l-.1.1q.1.3 0 .4l-.1.3v.2h-.1q-.3.6-.6.4-1.3 1-1.8 1.2l-1.3.9-2.2.9.1.1.4.3.4.5.1.1.7.2 1.3-.7q1-.4 3.1-2.2l1.4-1.7.6-.8.7-1 .1-.2zm-.3.6-.1.1h.2zm-1.4 2.2v.2h-.2v-.2zm-.4.8h.1v.4q-.6.5-.7.4v-.1l-.2-.3q.5-.4.8-.4m-.9.7v.1q-.4.4-.6.2.2-.3.6-.3m-2 .8h.1l-.2.3.1.2-.6-.1q.2-.3.7-.4m-1.1.6.3.1v.2h-.3z"/><path fill="#fff" fill-opacity=".5" d="M7.4 3.8q0 .6-.4 1a1 1 0 0 1-1 .5q-.6 0-1-.5l-.4-1q0-.6.4-1.1t1-.4q.7.1 1 .4.4.5.4 1"/><path fill="#55d400" fill-opacity=".5" d="m6.4 2 .8.5q.4.3.4.5l-.1-.1.1.3.1.2.1.1v.9l-.8 1q-.3.4-.6.4h-.8L5 5.6q-.8-.6-.8-1l-.1-.4.2-.6q0-.4.2-.5.3-.8.9-1l.8-.2zm-.1 0q0 .2.2.2V2zM5 2.6l.5-.3.6-.1H6a1 1 0 0 0-1 .4m1.8-.2H7zm-.3 0q0 .2.2.2zm-.9 0v.1h.6v-.1zm.8 0v.1q-.1 0 0 0zm-.8.3h.7l-.1-.1zm1.4 0 .2.2zm-2 0h.2zm1.6 0 .1.2zm-2 1.6q0 .3.2.5l.3.2.6.3H6l.5-.2.3-.2q.5-.4.4-.8v-.8L7 3.1l-.4-.4h-.1l-1 .1-.3.4-.2.4zM7 2.8l.3.2zM4.8 3H5m2.6 1.1v.3zm-3.5 0v.2zm3.4.5v-.2q.1 0 0 .2m-.1.1.1-.1zm-3.1-.1.1.3zm.4.7.4.1zm.6.1h.2zm.7.2h.2z"/><path fill="#fff" fill-opacity=".5" d="M15.9 1.8q0 .6-.5 1.1a1 1 0 0 1-1 .5q-.5 0-1-.5L13 2q0-.7.4-1.1.6-.5 1-.5.7 0 1 .5.5.6.5 1"/><path fill="#0198fe" fill-opacity=".5" d="m14.9 0 .9.6q.4.3.4.5L16 1v.3h.1l.1.1v1.1l-.8 1q-.3.3-.6.3H14l-.7-.1q-.7-.7-.7-1l-.2-.4.2-.6q0-.4.2-.5.4-.8 1-1l.8-.2zm-.1.2h.2zm-1.4.4.5-.3h.1l.6-.1h-.1a1 1 0 0 0-1 .4zm1.9-.3q0 .2.2.2zm-.4.1.2.1zm-.8 0 .6-.1zm.7 0v.1zm-.7.3h.7V.5h-.2zm1.3 0 .3.2zm-1.9 0h.2zm1.7 0v.1m-2 1.6.3.5.3.2q.1.2.5.3h.2l.5-.2.3-.2q.4-.5.4-.8v-.8l-.3-.3-.5-.3-1 .1-.3.4-.3.4zM15.5.9l.2.2q0-.2-.2-.2m.6 1.3v.3zm-3.1 0V2zm-.5 0v.2zm.1.6q0 .2.2.3zm.4.7.4.1h.1zm.6 0h.3zm1.2.1h.2zm-.4 0h.3z"/><path fill="#fff" fill-opacity=".5" d="M24.8 4.9q0 .7-.4 1a1 1 0 0 1-1 .5q-.6 0-1-.5L22 5q0-.7.4-1 .4-.5 1-.5t1 .4q.6.6.4 1"/><path fill="#55d400" fill-opacity=".5" d="m23.8 3 1 .6q.3.3.3.5H25l.1.2.1.2v.2l.1.3-.1.5-.7 1q-.4.4-.7.4H23l-.7-.2q-.7-.6-.7-1l-.2-.3.3-.7.1-.5q.4-.8 1-1l.8-.2zm-.1.2.1.1h.1zm-1.3.4.5-.3h.6l-.1-.1a1 1 0 0 0-1 .4m1.8-.2h.2zm-.4 0 .2.2q0-.2-.2-.2m-.8 0v.1h.6zm.7 0h.1zm-.7.2h.7zm1.3 0 .3.2zm-2.2 1.7.3.5.3.2q.1.2.5.3h.2l.5-.1.3-.3q.4-.4.4-.7v-.8l-.3-.3q-.2-.3-.5-.4-1 0-1 .2l-.3.4-.2.3zM24.5 4l.2.2q0-.2-.2-.2m-2.2.2.1-.1zm2.8 1.3v.2zM25 6v-.2zm-3.3 0q0 .3.2.3zm.5.7q0 .2.3.2h.1zm.6.1h.2zm.7.3h.3z"/><path fill="#fff" fill-opacity=".5" d="M28.6 11.6q0 .7-.4 1a1 1 0 0 1-1 .5q-.6 0-1-.4l-.4-1.1q0-.7.4-1 .4-.6 1-.5t1 .4q.5.6.4 1"/><path fill="#55d400" fill-opacity=".5" d="m27.6 9.8 1 .5.3.5h-.1l.1.2.1.2v.2l.1.3-.1.5q0 .2-.7 1.1-.3.3-.7.3H27l-.8-.2q-.7-.6-.7-1l-.2-.3.3-.7.1-.5q.4-.8 1-1zm-.1.1.2.1zm-1.3.4.5-.3h.6l-.1-.1a1 1 0 0 0-1 .4m1.8-.2.2.1zm-.4 0 .3.2zm-.8 0h.6zm.8 0h-.1zm-.8.3h.2l.5-.1zm1.4 0 .2.2zm-2 0h.2zm1.6.1h.1zm-2 1.6.3.5.3.3.5.2h.2l.5-.1.3-.3q.4-.4.4-.7v-.8l-.3-.3q-.2-.3-.5-.4-1 0-1 .2l-.3.4-.2.3zm2.3-1.5.2.2q0-.2-.2-.2m-2 0v.1zm-.2.3.1-.1zm2.9.7v.1zm-.1.6v.2zm-.1.5v-.2zm-3.3 0q0 .3.2.3zm.5.7q0 .2.4.2zm.6.1.2.1zm-.2 0h.1m1.3.2.1-.1zm-.5 0h.3z"/><path fill="#fff" fill-opacity=".5" d="M27 20q-.1 1.4-1.4 1.5-1.2 0-1.4-1.5c-.2-1.5.7-1.5 1.5-1.5q1.2.1 1.4 1.5"/><path fill="#0198fe" fill-opacity=".5" d="M26 18.3h.2q.4.1.8.5.4.3.4.5l-.1-.1v.3h.1l.1.1v1.1l-.8 1q-.3.3-.6.3h-.8l-.7-.1q-.7-.7-.7-1l-.2-.4.2-.6q0-.4.2-.5.4-.8 1-1l.8-.2zm0 0 .1.2h.1zm-1.3.5.4-.3h.1l.6-.1h-.1a1 1 0 0 0-1 .3zm1.8-.3.2.1zm-.4.1.2.1zm-.8 0h.6zm.7 0h.1zm-.7.3h.7v-.1h-.2zm1.3 0 .3.2zm-1.9 0h.2v-.1zm1.7 0v.1h.1zm-2 1.6.3.5.3.2q.1.2.5.2h.7l.3-.3q.4-.5.4-.8v-.8l-.3-.3q-.3-.3-.5-.3l-1 .1-.3.4-.3.4zm2.3-1.5.2.2q0-.2-.2-.2m-2.2.2h.1zm2.8 1.1v.3zm-3.6 0v.1zm3.3.6.2-.1zm-3 0v.3zm.2.4v.1h.1zm.2.3.3.1h.1zm.5 0h.3zm-.1 0h.1zm1.4.2h.1zm-.5 0h.3v-.1z"/><path fill="#fff" fill-opacity=".5" d="M19.6 26q0 .6-.5 1a1 1 0 0 1-1 .5q-.5 0-1-.4l-.4-1.1q0-.7.4-1 .6-.5 1-.5.6 0 1 .4t.5 1.1"/><path fill="#c78338" fill-opacity=".5" d="m18.6 24.2.9.5.4.5h-.1v.2h.1l.1.2v1q0 .2-.8 1.1-.3.3-.6.3h-.8l-.7-.2q-.7-.6-.7-1l-.2-.3.2-.7q0-.3.2-.5.4-.8 1-1l.8-.2zm-.1.1.1.1h.1zm-1.4.4.5-.3h.7l-.1-.1a1 1 0 0 0-1 .4zm1.9-.2.2.1zm-.4 0 .2.2zm-.8 0h.6zm0 .3h.1l.6-.1h-.7m1.3 0 .3.2zm-1.9 0h.2zm-.3 1.7.3.4.3.3.5.2h.2l.5-.1.3-.3q.4-.4.4-.7v-.8l-.3-.3-.5-.4q-1 0-1 .2l-.3.4-.3.3zm2.3-1.5q0 .2.2.2 0-.2-.2-.2m-2 0v.1zm-.2.3v-.1m2.8.6v.1zm0 .6v.2zv-.1m-.1.5v-.1zm-.2.1h.1v-.1zm-3.2-.1.1.3zm.4.7.4.2h.1zm.6.1.3.1zm1.2.2.2-.1zm-.4 0h.3-.2"/><path fill="#fff" fill-opacity=".5" d="M11.2 25.6q0 .6-.4 1a1 1 0 0 1-1 .5q-.7 0-1-.5l-.4-1q0-.6.4-1.1.3-.5 1-.5.5 0 1 .5l.4 1"/><path fill="#c78338" fill-opacity=".5" d="m10.2 23.8 1 .5q.3.3.3.5l-.1-.1v.3h.1l.1.2v1l-.8 1q-.3.4-.6.4h-.8l-.7-.2q-.7-.7-.7-1l-.2-.4.3-.6.1-.5q.4-.8 1-1l.8-.2zm-.1 0 .1.2h.1zm-1.3.5.5-.3.6-.1h-.1a1 1 0 0 0-1 .4m1.8-.2h.2zm-.4 0 .2.1zm-.8 0h.6V24zm0 .3h.7l-.1-.1zm1.3 0 .3.2zm-.2 0 .1.2zm-2 1.6.3.5.3.2q.1.2.5.3h.2q.3 0 .5-.2l.3-.2q.4-.4.4-.8V25l-.3-.2q-.2-.3-.5-.4l-1 .1-.3.4-.2.4zm2.4-1.5.2.2q0-.2-.2-.2m.5 1.3.1.3zm-3.6 0v.2zm3.5.5v-.2zm-.1 0v.1zm-3.2 0q0 .3.2.3zm.5.7.3.1H9zm.6.1h.2zm.7.2h.2z"/><path fill="#fff" fill-opacity=".5" d="M4.3 19.7q0 .6-.4 1a1 1 0 0 1-1 .5q-.6 0-1-.4l-.4-1q0-.7.4-1.2.4-.3 1-.4.6 0 1 .4t.4 1.1"/><path fill="#0198fe" fill-opacity=".5" d="m3.4 18 .9.4.4.5h-.2l.1.3V19h.1v.2l.1.2v.8L4 21.4q-.3.3-.6.3h-.8l-.7-.2q-.7-.6-.7-1l-.2-.3.2-.7q0-.3.2-.5.3-.7 1-1H3zm-.2 0 .2.1V18zm-1.3.5.5-.3h.1L3 18a1 1 0 0 0-1 .4zm1.9-.3.1.1zm-.4 0 .2.2zm-.9 0h.7zm.1.3.6-.1h-.6m1.3 0 .2.2zm-.3.1.1.1m-2 1.6.2.5.3.2.6.2h.1l.5-.1.3-.2q.5-.5.5-.8v-.8l-.4-.3-.4-.4h-.1q-1 0-1 .2l-.2.4-.3.3zM4 18.8l.3.1zm-2.2.2H2zm2.8 1.2v.2zM1 20v.1zm3.4.4v-.1zm-3.2 0 .1.3zm.4.8H2zm.6 0 .2.1zm-.2 0h.1m1.3.2h.2v-.1zm-.4 0h.2z"/><path fill="#fff" fill-opacity=".5" d="M3.3 11q0 .5-.4 1a1 1 0 0 1-1 .5q-.5 0-1-.5l-.4-1q0-.7.4-1.1.6-.6 1-.5.6 0 1 .5t.4 1"/><path fill="#55d400" fill-opacity=".5" d="M2.4 9.2q.5.1.9.5.4.3.4.5l-.2-.1.2.3v.1l.1.2v.9l-.8 1q-.3.3-.6.3h-.8l-.7-.1q-.7-.7-.7-1l-.2-.4.2-.6q0-.4.2-.5.4-.8 1-1L2 9zm-.2 0q0 .2.2.2h.1q0-.2-.2-.2m-1.4.5.5-.3h.1l.6-.1h-.2a1 1 0 0 0-1 .3zm1.9-.3.1.2zm-.4.1.2.1zm-.8 0h.6zm0 .3h.7v-.1H2zm1.3 0 .2.2zM1 9.8h.2v-.1zm1.6 0 .2.1zM.7 11.5l.2.5.4.2q.1.2.5.2h.7l.2-.3q.5-.5.5-.8v-.8l-.3-.3q-.3-.3-.5-.3h-.1l-1 .1-.2.4-.3.4zM3 10l.2.2q0-.2-.2-.2m.6 1.3v.3zm-.3.6.1-.1m-3.2 0 .1.3zm.3.4v.1zm.1.3.4.1zm.6 0v.1h.3zm1.2.1h.2zm-.4 0h.3z"/><path fill="#fff" fill-opacity=".5" d="M9.6 9.6q0 .7-.5 1a1 1 0 0 1-1 .5q-.5 0-1-.4l-.4-1.1q0-.7.5-1 .3-.5 1-.5.5 0 1 .4t.4 1"/><path fill="#0198fe" fill-opacity=".5" d="m8.6 7.8.9.5q.4.3.4.5h-.1V9h.1l.1.2v1q0 .2-.8 1.1-.3.3-.6.3h-.8l-.7-.2q-.7-.6-.7-1l-.2-.3.2-.7q0-.3.2-.5.4-.8 1-1l.8-.2zm-1.4.5.4-.3h.7l-.1-.1a1 1 0 0 0-1 .4M9 8.1l.2.1zm-.4 0 .2.2q0-.2-.2-.2m-.8 0h.6zm0 .3H8l.6-.1zm1.3 0 .3.2zm-1.9 0h.2zM7 10.2l.3.5.3.3.5.2h.2l.5-.1.3-.3q.4-.4.4-.7v-.8L9 8.9l-.5-.4q-1 0-1 .2l-.3.4-.3.3zm2.3-1.5.2.2q0-.2-.2-.2m.5 1.6v.2zm-.1.5v-.2zm-.2.1.2-.1zm-3-.1v.3zm.2.5H7zm.2.2q0 .2.3.2h.1zm.5.1.3.1zm-.1 0h.1zm1.4.2.1-.1zm-.5 0h.3z"/><path fill="#fff" fill-opacity=".5" d="M21.9 10.2q0 .7-.4 1a1 1 0 0 1-1 .5q-.6 0-1-.4l-.5-1.1q0-.7.5-1 .4-.5 1-.5t1 .4q.6.5.4 1.1"/><path fill="#0c9cfe" fill-opacity=".5" d="m20.9 8.4 1 .5.3.5h-.1v.2h.1l.1.2v1q0 .2-.8 1.1-.3.3-.6.3h-.8l-.7-.2q-.7-.6-.7-1l-.2-.3.2-.7q0-.3.2-.5.4-.7 1-1l.8-.1zm-1.4.5.5-.2.6-.2h-.1a1 1 0 0 0-1 .4m1.8-.2.2.1zm-.4 0 .2.2zm-.8 0h.6zm0 .3.6-.1zm1.3 0 .3.2zm-1.9 0h.2zm1.7.1h.1zm-2 1.7.3.4.3.3.5.2h.2l.5-.1.3-.3q.4-.4.4-.7v-.8l-.3-.3q-.2-.3-.5-.4-1 0-1 .2l-.3.4-.2.3zm2.4-1.5.2.1zm-2.2.2.1-.1zm2.7 1.2v.2h.1zm-3.4.5q0 .3.2.3 0-.3-.2-.3m.5.7q0 .2.3.2h.1zm.6.1.2.1zm.7.2h.3z"/><path fill="#fff" fill-opacity=".5" d="M15.4 21q0 .8-.4 1.1a1 1 0 0 1-1 .5q-.6 0-1-.5l-.4-1q0-.6.4-1.1t1-.4 1 .4q.5.6.4 1"/><path fill="#55d400" fill-opacity=".5" d="m14.4 19.3.8.5q.5.3.5.5l-.2-.1.1.3.1.2.1.1v.9l-.8 1q-.3.4-.6.4h-.8L13 23q-.8-.6-.8-1l-.1-.3.2-.7q0-.4.2-.5.3-.8.9-1l.8-.2zm-.1 0q0 .2.2.2v-.1zm-1.3.4.5-.3h.6v-.1a1 1 0 0 0-1 .4zm1.8-.2h.2zm-.3 0q0 .2.2.2zm-.9 0v.1h.6v-.1zm.8 0v.1q-.1 0 0 0zm-.8.3h.7zm1.4 0 .2.2zm-2 0h.2zm-.4 1.7q0 .3.2.5l.3.2.6.3h.1l.5-.1.3-.3q.5-.4.4-.7v-.9l-.3-.2-.4-.4h-.1q-1 0-1 .2l-.3.3-.2.4zM15 20l.3.2zm-2.8.6.1-.1m3.2.8v.3zm-.1.5v-.2zm-3.2 0 .1.3zm.4.7.4.1zm.6.1h.2zm.7.2h.2z"/></svg>